<?xml version="1.0" encoding="UTF-8" standalone="no"?>
<svg width="298px" height="23px" viewBox="0 0 298 23" version="1.1" xmlns="http://www.w3.org/2000/svg" xmlns:xlink="http://www.w3.org/1999/xlink" xmlns:sketch="http://www.bohemiancoding.com/sketch/ns">
    <!-- Generator: Sketch 3.3.3 (12072) - http://www.bohemiancoding.com/sketch -->
    <title>LM-Logo-Final</title>
    <desc>Created with Sketch.</desc>
    <defs></defs>
    <g id="Home" stroke="none" stroke-width="1" fill="none" fill-rule="evenodd" sketch:type="MSPage">
        <g id="Desktop-HD" sketch:type="MSArtboardGroup" transform="translate(-93.000000, -38.000000)" fill="#E5373D">
            <g id="LM-Logo-Final" sketch:type="MSLayerGroup" transform="translate(92.876087, 38.800000)">
                <path d="M0.134588876,21.883175 L0.134588876,0.181088578 L4.43669385,0.181088578 L4.43669385,18.6768606 L22.7682674,18.6768606 L22.7682674,21.8828579 L0.134588876,21.8828579 L0.134588876,21.883175 Z" id="Shape" sketch:type="MSShapeGroup"></path>
                <path d="M26.268526,21.883175 L26.268526,0.181088578 L30.5384055,0.181088578 L30.5384055,21.883175 L26.268526,21.883175 L26.268526,21.883175 Z" id="Shape" sketch:type="MSShapeGroup"></path>
                <path d="M42.7698804,21.883175 C37.3970672,21.883175 34.7116084,20.3218807 34.7116084,17.1977063 L34.7116084,4.86687445 C34.7116084,1.74333435 37.3970672,0.181405721 42.7698804,0.181405721 L60.4597873,0.181405721 L60.4597873,3.38740297 L42.7698804,3.38740297 C40.2439694,3.38740297 38.9814879,3.88087728 38.9814879,4.86687445 L38.9814879,17.1977063 C38.9814879,18.1837035 40.2439694,18.6771778 42.7698804,18.6771778 L52.7547321,18.6771778 C55.2796952,18.6771778 56.5428087,18.2049521 56.5428087,17.2589149 L56.5428087,10.0458175 L60.81332,10.0458175 L60.81332,17.2589149 C60.81332,20.3418607 58.1269134,21.883175 52.7547321,21.883175 L42.7698804,21.883175 L42.7698804,21.883175 Z" id="Shape" sketch:type="MSShapeGroup"></path>
                <path d="M87.171256,21.883175 L87.171256,12.0187633 L68.6785549,12.0187633 L68.6785549,21.883175 L64.4083595,21.883175 L64.4083595,0.181088578 L68.6785549,0.181088578 L68.6785549,8.81244887 L87.171256,8.81244887 L87.171256,0.181088578 L91.4411354,0.181088578 L91.4411354,21.883175 L87.171256,21.883175 L87.171256,21.883175 Z" id="Shape" sketch:type="MSShapeGroup"></path>
                <path d="M106.112271,21.883175 L106.112271,3.38740297 L94.2656062,3.38740297 L94.2656062,0.181405721 L121.908139,0.181405721 L121.908139,3.38740297 L110.38215,3.38740297 L110.38215,21.883175 L106.112271,21.883175 L106.112271,21.883175 Z" id="Shape" sketch:type="MSShapeGroup"></path>
                <path d="M189.779161,21.883175 L178.124902,4.40479729 L166.277605,21.883175 L161.526239,21.883175 L176.551855,0.181088578 L179.666039,0.181088578 L194.594662,21.883175 L189.779161,21.883175 L189.779161,21.883175 Z" id="Shape" sketch:type="MSShapeGroup"></path>
                <path d="M201.626141,21.883175 L201.626141,3.38740297 L189.779477,3.38740297 L189.779477,0.181405721 L217.421694,0.181405721 L217.421694,3.38740297 L205.896337,3.38740297 L205.896337,21.883175 L201.626141,21.883175 L201.626141,21.883175 Z" id="Shape" sketch:type="MSShapeGroup"></path>
                <path d="M231.837553,21.883175 L231.837553,3.38740297 L219.990888,3.38740297 L219.990888,0.181405721 L247.633105,0.181405721 L247.633105,3.38740297 L236.107748,3.38740297 L236.107748,21.883175 L231.837553,21.883175 L231.837553,21.883175 Z" id="Shape" sketch:type="MSShapeGroup"></path>
                <path d="M250.490118,21.883175 L250.490118,0.181088578 L273.734185,0.181088578 L273.734185,3.38708583 L254.759997,3.38708583 L254.759997,8.81213173 L272.771211,8.81213173 L272.771211,12.018129 L254.759997,12.018129 L254.759997,18.6765435 L273.734185,18.6765435 L273.734185,21.8825408 L250.490118,21.8825408 L250.490118,21.883175 Z" id="Shape" sketch:type="MSShapeGroup"></path>
                <path d="M291.925167,12.1205661 C293.823944,11.916009 295.186578,11.363229 296.011803,10.4622261 C296.867991,9.52760604 297.296085,8.36115457 297.296085,6.96350595 L297.296085,5.42219161 C297.296085,4.64170302 297.167498,3.93257156 296.910642,3.2951144 C296.654102,2.65829152 296.241489,2.10836579 295.674699,1.64628863 C295.107278,1.18357718 294.374621,0.733234311 293.475151,0.476348588 C292.576312,0.22009715 291.484752,0.000634285736 290.200471,0.000634285736 L275.789667,0.000634285736 L278.263448,3.17206297 L289.847254,3.17206297 C291.729918,3.17206297 292.872976,4.05594014 292.872976,5.3917459 L292.872976,6.9949031 C292.872976,8.33070886 291.729918,8.88063459 289.847254,8.88063459 L281.443031,8.88063459 L292.479951,21.8834922 L297.392445,21.8834922 L288.529483,12.142449 C288.593618,12.1361061 291.800688,12.1288118 291.800688,12.1288118 C291.800688,12.1288118 291.916953,12.1215176 291.925167,12.1205661 L291.925167,12.1205661 Z" id="Shape" sketch:type="MSShapeGroup"></path>
                <path d="M155.572103,21.8489236 L155.572103,6.54868308 L144.000303,21.8489236 L140.476981,21.8489236 L128.872956,6.57976308 L128.872956,21.8489236 L124.897213,21.8489236 L124.897213,0 L128.905181,0 L142.416514,17.8459463 L155.862764,0 L159.547846,0 L159.547846,21.8489236 L155.572103,21.8489236 L155.572103,21.8489236 Z" id="Shape" sketch:type="MSShapeGroup"></path>
            </g>
        </g>
    </g>
</svg>